<?xml version="1.0" standalone="no"?><!DOCTYPE svg PUBLIC "-//W3C//DTD SVG 1.1//EN" "http://www.w3.org/Graphics/SVG/1.1/DTD/svg11.dtd"><svg t="1718626331342" class="icon" viewBox="0 0 1024 1024" version="1.1" xmlns="http://www.w3.org/2000/svg" p-id="18025" xmlns:xlink="http://www.w3.org/1999/xlink" width="48" height="48"><path d="M998.4 221.184c-7.68-20.992-19.456-39.936-36.352-55.808-16.896-15.872-37.376-28.672-62.464-37.376s-54.272-11.776-87.552-8.192c-22.528 2.048-45.568 7.68-69.12 16.896s-46.08 20.48-67.584 34.304c-21.504 13.824-40.96 29.184-58.88 46.592-17.92 17.408-32.256 35.84-43.008 54.784-10.24-20.48-23.04-40.96-38.4-61.44s-32.256-39.936-50.176-57.856c-17.92-17.92-36.864-34.304-56.32-48.128S390.656 79.872 373.76 71.68c-16.896-7.68-34.816-12.8-52.736-16.384-17.92-3.584-35.84-4.608-53.248-4.096-17.408 0.512-33.792 3.584-48.64 9.216-14.848 5.632-28.16 13.312-38.912 23.552-12.288 12.288-23.04 26.112-32.256 40.96-9.216 14.848-15.36 31.232-18.432 48.128-3.072 16.896-2.048 34.304 2.56 52.224 4.608 17.92 44.544 162.816 280.576 223.232 29.696 7.68 58.368 7.168 84.992 1.024-8.704 38.912-16.896 82.432-23.552 131.072s-10.24 99.328-10.24 152.576c0 41.472-0.512 76.8-1.024 105.472-0.512 28.672-1.536 51.712-2.048 69.632-1.536 20.992-2.56 38.4-3.072 51.2h119.808c-2.048-20.992-3.584-43.008-5.12-65.536-1.536-19.968-2.56-41.472-3.584-65.536-1.024-24.064-1.536-47.616-1.536-71.68 0-51.2 3.072-101.376 9.216-150.016s13.824-93.696 22.528-134.656c291.84 33.28 373.76-109.568 385.536-128.512 11.776-18.944 18.944-38.4 21.504-59.392s0-41.984-7.68-62.976z m-406.016 205.824c-25.088 22.016-39.936 54.272-59.904 182.784-20.48 132.608-30.72 228.864-30.72 228.864s7.68-126.464 20.48-240.64c8.192-72.192 27.136-136.192 18.944-170.496-8.192-32.768-41.984-62.976-64-79.872-12.288-8.192-19.968-13.824-19.968-13.824s8.192 5.12 19.968 13.824c20.992 13.824 55.808 34.816 90.112 45.568 36.864 11.776 99.328 1.536 134.656-5.632 15.872-4.096 26.624-6.144 26.624-6.144s-10.752 3.072-26.624 6.144c-34.816 8.192-92.672 24.576-109.568 39.424z" fill="#8BBF1F" p-id="18026"></path></svg>