<?xml version="1.0" standalone="no"?><!DOCTYPE svg PUBLIC "-//W3C//DTD SVG 1.1//EN" "http://www.w3.org/Graphics/SVG/1.1/DTD/svg11.dtd"><svg t="1718626183102" class="icon" viewBox="0 0 1024 1024" version="1.1" xmlns="http://www.w3.org/2000/svg" p-id="11810" data-spm-anchor-id="a313x.search_index.0.i10.727b3a81peSPfI" xmlns:xlink="http://www.w3.org/1999/xlink" width="48" height="48"><path d="M823.7 511.6c0 171.4-138.1 310.7-309.1 312.4h-3.3c-104 0-196.1-50.8-252.8-128.9-21.7-29.7-38.2-63.4-48.2-99.8-7.5-26.7-11.4-54.8-11.4-83.7 0-16.8 1.3-33.3 3.9-49.4C216 379.7 261.3 308 325.5 260.4c51.9-38.5 116.2-61.2 185.8-61.2 45.6 0 89 9.8 128.1 27.3 108.7 49 184.3 158.2 184.3 285.1z" fill="#F2F2F2" p-id="11811"></path><path d="M707.7 325c-9.3-6.5-11.5-19.2-5-28.5l4.5-6.4c4.3-6.2 10.2-11.3 17.3-13.9 18.7-7 34.2-23.4 38.3-48 3.5-21.1-6.1-42.3-23.6-54.6-23.7-16.6-56.6-15.2-77.1 5.3-11.8 11.7-17.3 26.7-17.4 41.5 0 7.5-2.8 14.8-7.2 21l-4.4 6.4c-6.5 9.3-19.2 11.5-28.5 5-30.8-21.6-73.8-14-95.4 16.8L499 283.9c-21.6 30.8-14 73.8 16.8 95.4L619 451.6c30.8 21.6 73.8 14 95.4-16.8l10.1-14.4c21.6-30.9 14-73.8-16.8-95.4z" fill="#FFD731" p-id="11812"></path><path d="M676.2 593.4l-63 63.6c-24.5 24.6-44.6 53.3-59.4 84.8l-38.2 81-0.9 1.2h-3.3c-104 0-196.1-50.8-252.8-128.9-21.7-29.7-38.2-63.4-48.2-99.8l55-55.4c24.5-24.7 44.5-53.3 59.4-84.9l38.2-81c19.7-28.2 59.5-34.4 88.8-13.9l207.2 145c29.2 20.6 37 60.1 17.2 88.3z" fill="#4AE5CF" p-id="11813" data-spm-anchor-id="a313x.search_index.0.i9.727b3a81peSPfI" class=""></path><path d="M673 515L437.7 350.2c-11.9-8.3-14.8-24.7-6.4-36.6l36.7-52.4c8.3-11.9 24.7-14.8 36.6-6.4l235.3 164.8c11.9 8.3 14.8 24.7 6.4 36.6l-36.7 52.4c-8.3 11.9-24.7 14.7-36.6 6.4z" fill="#FFAB56" p-id="11814" data-spm-anchor-id="a313x.search_index.0.i11.727b3a81peSPfI" class=""></path><path d="M424.6 745.4l-118.4-82.9c-24-16.8-29.8-49.8-13-73.8l70-100c8.6-12.3 25.6-15.3 38-6.7l160.5 112.4c12.3 8.6 15.3 25.6 6.7 38l-70 100c-16.8 24-49.9 29.8-73.8 13z" fill="#FFFFFF" p-id="11815"></path></svg>