<?xml version="1.0" standalone="no"?><!DOCTYPE svg PUBLIC "-//W3C//DTD SVG 1.1//EN" "http://www.w3.org/Graphics/SVG/1.1/DTD/svg11.dtd"><svg t="1719016822867" class="icon" viewBox="0 0 1024 1024" version="1.1" xmlns="http://www.w3.org/2000/svg" p-id="6572" xmlns:xlink="http://www.w3.org/1999/xlink" width="48" height="48"><path d="M788.109125 265.031044h-92.477893c0-101.990593-82.965193-184.955786-184.955785-184.955785-101.990593 0-184.955786 82.965193-184.955786 184.955785h-92.477892c-50.935089 0-92.477893 41.542803-92.477893 92.477893v493.215428c0 50.935089 41.542803 92.477893 92.477893 92.477893h554.867356c50.935089 0 92.477893-41.542803 92.477893-92.477893V357.508937c0-50.935089-41.542803-92.477893-92.477893-92.477893zM510.675447 141.727187c68.033866 0 123.303857 55.269991 123.303857 123.303857H387.37159c0-68.033866 55.269991-123.303857 123.303857-123.303857z m308.259642 708.997178c0 16.978363-13.847601 30.825964-30.825964 30.825964H233.241769c-16.978363 0-30.825964-13.847601-30.825965-30.825964V357.508937c0-16.978363 13.847601-30.825964 30.825965-30.825964h276.711194l0.722484 0.240828 0.722483-0.240828h276.711195c16.978363 0 30.825964 13.847601 30.825964 30.825964v493.215428z m0 0" fill="#d7bb93" p-id="6573"></path><path d="M510.675447 819.898401c-91.273754 0-173.155221-57.798683-203.49953-143.774224-5.659454-16.135466 2.649106-33.595484 18.784572-39.254939 16.135466-5.659454 33.595484 2.649106 39.254939 18.784572 21.674506 61.411101 80.195673 102.713076 145.339605 102.713076s123.665099-41.301976 145.339605-102.83349c5.659454-16.135466 23.360301-24.444026 39.254939-18.784572 16.135466 5.659454 24.444026 23.360301 18.784572 39.254939-30.223895 86.095955-111.984948 143.894638-203.258702 143.894638z m0 0" fill="#d7bb93" p-id="6574"></path></svg>