<?xml version="1.0" standalone="no"?><!DOCTYPE svg PUBLIC "-//W3C//DTD SVG 1.1//EN" "http://www.w3.org/Graphics/SVG/1.1/DTD/svg11.dtd"><svg t="1719016721422" class="icon" viewBox="0 0 1170 1024" version="1.1" xmlns="http://www.w3.org/2000/svg" p-id="4274" xmlns:xlink="http://www.w3.org/1999/xlink" width="54.84375" height="48"><path d="M1097.142857 209.188571C1097.142857 81.188571 844.507429 24.429714 585.142857 24.429714S73.142857 81.188571 73.142857 209.188571v167.058286a39.497143 39.497143 0 0 0 7.606857 23.405714c10.24 14.043429 98.450286 129.316571 459.483429 137.508572v204.653714c-93.476571 3.218286-265.801143 20.626286-265.801143 105.033143 0 98.011429 232.594286 105.764571 303.981714 105.764571 71.241143 0 303.981714-7.606857 303.981715-105.764571 0-83.529143-168.813714-101.376-263.021715-104.886857V498.102857a39.497143 39.497143 0 0 0-39.497143-39.497143c-296.374857 0-398.482286-72.557714-427.446857-98.304v-46.811428c123.026286 64.073143 344.502857 65.682286 432.713143 65.682285 88.210286 0 309.686857-1.462857 432.566857-65.682285v45.933714c-19.017143 20.041143-84.845714 77.824-296.521143 92.598857a39.643429 39.643429 0 0 0 2.779429 79.286857h2.779429c296.667429-20.626286 357.961143-126.098286 365.129142-138.678857A39.936 39.936 0 0 0 1097.142857 373.028571V210.651429v-1.462858zM578.413714 873.325714c-100.937143 0-171.154286-13.750857-205.677714-26.624 30.134857-10.971429 87.478857-22.820571 168.374857-25.746285a39.497143 39.497143 0 0 0 77.385143 0c79.433143 3.072 135.606857 14.774857 165.302857 25.6-34.377143 13.019429-104.594286 26.770286-205.385143 26.770285zM585.142857 299.885714c-309.394286 0-432.713143-58.368-432.713143-90.697143 0-40.813714 157.988571-105.325714 432.713143-105.325714 274.578286 0 432.566857 64.512 432.566857 105.325714 0 32.329143-123.318857 90.697143-432.566857 90.697143z" fill="#d7bb93" p-id="4275"></path></svg>